<?xml version="1.0" standalone="no"?>
<!DOCTYPE svg PUBLIC "-//W3C//DTD SVG 20010904//EN"
 "http://www.w3.org/TR/2001/REC-SVG-20010904/DTD/svg10.dtd">
<svg version="1.0" xmlns="http://www.w3.org/2000/svg"
 width="1157.000000pt" height="501.000000pt" viewBox="0 0 1157.000000 501.000000"
 preserveAspectRatio="xMidYMid meet">

<g transform="translate(0.000000,501.000000) scale(0.100000,-0.100000)"
fill="#000000" stroke="none">
<path d="M0 2505 l0 -2505 5785 0 5785 0 0 2505 0 2505 -5785 0 -5785 0 0
-2505z m3800 1121 c41 -8 101 -21 133 -31 l57 -16 0 -135 c0 -170 -16 -210
-105 -257 -38 -20 -60 -22 -375 -28 -184 -4 -364 -12 -400 -18 -165 -30 -392
-102 -513 -163 -22 -11 -41 -18 -43 -16 -7 8 98 183 146 243 170 214 431 371
696 419 101 18 308 19 404 2z m2083 -146 c75 -28 124 -72 153 -135 35 -75 32
-137 -10 -207 l-34 -57 29 -11 c43 -18 106 -92 119 -141 43 -160 -95 -291
-346 -329 -158 -24 -341 21 -390 95 -48 73 -32 127 49 174 66 37 72 38 52 7
-23 -35 -10 -90 31 -136 39 -43 130 -87 199 -97 46 -6 47 -5 36 15 -9 16 -8
24 4 36 14 14 21 46 10 46 -2 0 -22 -7 -44 -16 -35 -14 -42 -14 -69 0 -16 8
-33 23 -38 33 -5 10 -11 74 -14 142 -5 119 -6 125 -31 143 -22 16 -30 18 -48
9 -26 -14 -26 -14 -1 43 10 25 25 47 32 48 7 0 20 1 28 2 12 1 15 18 16 86 2
133 -5 170 -32 182 -32 15 -24 22 39 38 68 16 105 8 117 -26 6 -14 10 -156 10
-324 0 -281 1 -299 20 -321 19 -24 19 -22 19 334 1 412 13 372 -114 371 -140
-1 -241 -67 -264 -173 -10 -49 -2 -111 19 -136 18 -21 3 -19 -70 11 -91 37
-102 56 -79 137 21 77 120 154 229 177 25 5 106 8 180 6 109 -3 146 -8 193
-26z m-1623 -41 c30 -21 70 -51 87 -66 l33 -28 -10 -67 c-35 -239 -216 -432
-452 -482 -54 -11 -157 -16 -388 -20 -288 -3 -325 -6 -430 -29 -201 -43 -371
-115 -543 -231 -55 -36 -101 -66 -104 -66 -5 0 4 147 13 210 5 32 13 40 87 82
161 93 337 158 534 199 82 17 154 22 443 28 322 7 349 9 402 30 76 29 138 79
180 143 53 80 68 137 68 250 0 77 3 98 13 92 6 -4 37 -25 67 -45z m3033 -17
l37 -38 -40 -39 -40 -39 -40 39 -40 39 37 38 c20 21 40 38 43 38 3 0 23 -17
43 -38z m-954 -152 c39 -20 51 -80 51 -256 0 -97 4 -173 11 -185 13 -25 53
-41 85 -33 l24 6 0 183 c0 100 -5 195 -10 211 -6 16 -22 37 -37 46 l-26 16 54
12 c71 16 98 11 123 -23 19 -26 21 -45 26 -234 5 -197 6 -205 28 -223 12 -10
22 -20 22 -23 0 -8 -94 -31 -119 -29 -14 1 -34 11 -46 22 l-21 20 -63 -26
c-58 -23 -67 -24 -104 -12 -67 22 -77 53 -77 243 0 186 -9 228 -51 254 l-30
19 38 10 c50 13 100 14 122 2z m706 -6 c21 -14 55 -78 55 -105 0 -8 -120 -69
-136 -69 -2 0 -4 18 -4 41 0 33 -6 47 -31 70 -20 18 -42 29 -60 29 -29 0 -29
-1 -29 -59 0 -84 21 -106 130 -137 115 -33 125 -45 125 -141 l0 -77 -134 -43
c-152 -49 -178 -48 -226 8 -43 52 -35 74 43 113 68 34 69 34 65 11 -7 -32 23
-90 53 -104 14 -6 37 -11 51 -11 25 0 25 1 21 61 -5 73 -13 81 -113 110 -38
12 -82 30 -97 41 -34 24 -50 76 -46 148 l3 54 115 38 c127 40 178 46 215 22z
m251 2 c17 -13 19 -31 24 -228 3 -117 9 -221 14 -231 5 -10 20 -24 33 -31 25
-13 24 -13 -33 -28 -71 -17 -103 -10 -127 31 -14 25 -17 58 -17 214 0 196 -6
231 -40 242 -27 8 -19 17 28 31 52 17 95 16 118 0z m235 -10 l11 -24 54 24
c62 27 120 31 150 9 46 -31 54 -71 54 -257 1 -185 6 -209 51 -233 23 -13 22
-13 -20 -25 -71 -19 -100 -16 -129 14 -27 26 -27 27 -32 217 l-5 191 -28 24
c-18 15 -41 24 -63 24 l-34 0 0 -172 c0 -191 9 -240 46 -265 30 -19 22 -27
-43 -41 -58 -13 -96 5 -116 57 -14 33 -17 78 -17 225 l0 185 -26 20 -26 21 23
8 c13 5 31 12 39 15 8 3 34 6 58 6 35 1 44 -3 53 -23z m720 -4 c24 -22 32 -37
33 -67 1 -42 6 -38 -194 -147 l-50 -28 0 -81 c0 -78 1 -82 31 -110 38 -35 72
-37 154 -9 32 11 61 18 63 15 9 -8 1 -12 -131 -54 -155 -49 -185 -47 -230 19
-15 21 -17 52 -17 221 l0 196 113 35 c142 46 186 48 228 10z m409 1 c22 -20
33 -40 37 -68 l5 -41 -66 -27 c-37 -15 -68 -27 -70 -27 -2 0 -1 11 2 25 10 55
-41 115 -98 115 -18 0 -20 -6 -20 -62 0 -82 18 -101 130 -134 110 -33 120 -45
120 -143 l0 -77 -135 -42 c-126 -40 -137 -41 -169 -28 -45 19 -76 54 -76 87 0
23 10 33 65 63 36 20 67 36 68 36 1 0 1 -18 -1 -40 -4 -35 0 -44 28 -70 20
-19 43 -30 61 -30 29 0 29 1 29 58 0 73 -9 83 -117 117 -113 35 -133 60 -133
163 l0 77 118 37 c145 46 181 47 222 11z m416 -7 c25 -25 34 -43 34 -68 0 -33
-3 -36 -65 -61 -36 -15 -67 -27 -69 -27 -2 0 -1 11 2 25 10 55 -41 115 -98
115 -18 0 -20 -6 -20 -59 0 -84 19 -104 128 -137 112 -33 122 -44 122 -143 l0
-77 -134 -42 c-113 -35 -139 -40 -163 -31 -44 16 -83 59 -83 91 0 24 8 32 69
62 61 31 68 33 64 16 -14 -52 37 -120 88 -120 29 0 29 0 29 63 0 74 1 73 -126
116 -105 35 -126 64 -122 165 l3 70 115 38 c148 48 181 49 226 4z m-4451 -217
l44 -86 -46 -78 c-55 -95 -192 -239 -284 -301 -88 -58 -195 -107 -294 -135
-72 -20 -114 -22 -425 -29 -366 -8 -428 -15 -574 -64 -154 -52 -294 -136 -410
-247 -42 -39 -78 -70 -81 -67 -8 7 -52 131 -59 165 -7 29 -3 36 35 70 93 85
256 185 378 233 200 78 346 99 691 100 175 1 290 5 340 14 223 40 430 193 533
394 25 48 50 105 57 126 l13 39 18 -24 c10 -13 39 -63 64 -110z m132 -493 l5
-121 -76 -65 c-232 -199 -486 -304 -792 -330 -66 -5 -223 -10 -350 -10 -272 0
-343 -13 -489 -89 -72 -37 -109 -65 -183 -138 l-92 -93 -38 42 c-20 22 -48 56
-61 74 l-24 33 39 43 c98 109 227 200 355 251 157 63 267 76 614 77 252 0 350
10 482 51 85 27 210 87 291 140 71 47 221 185 267 247 40 54 46 41 52 -112z
m905 -82 c28 -9 61 -26 74 -39 l24 -24 0 -287 0 -286 -46 -51 -46 -52 38 -16
c22 -9 52 -19 67 -23 l28 -7 -3 401 c-2 328 -1 400 10 398 11 -2 13 -79 12
-400 l-1 -398 37 0 c28 0 44 8 70 34 l34 34 0 330 0 331 -25 19 c-14 11 -25
22 -25 25 0 2 27 12 60 21 51 14 64 15 88 4 l27 -13 3 -318 2 -319 -50 -45
c-27 -25 -48 -49 -45 -54 10 -15 135 -49 182 -49 38 0 50 5 79 34 l34 34 0
330 c0 345 -1 350 -42 365 -22 7 -1 19 59 33 45 10 62 11 83 1 l25 -12 2 -320
2 -320 -110 -100 c-154 -140 -176 -155 -219 -155 -40 0 -140 31 -177 55 -22
15 -26 14 -58 -11 -37 -28 -42 -43 -24 -61 9 -9 8 -19 -6 -39 -17 -27 -18 -27
-32 -8 -8 10 -12 29 -10 42 3 18 0 22 -20 22 -35 0 -127 33 -254 91 -99 46
-116 51 -141 41 l-28 -10 17 29 c52 88 102 100 208 51 l65 -31 0 114 c0 62 -3
121 -6 130 -4 8 -20 23 -36 31 -27 14 -31 14 -50 -3 -20 -18 -20 -17 -2 27 23
61 43 82 71 77 23 -4 23 -4 23 122 0 107 -3 131 -20 158 -51 85 -163 89 -216
8 -38 -58 -22 -158 29 -183 18 -9 12 -11 -36 -11 -52 -1 -62 2 -88 28 -23 24
-29 38 -29 73 0 119 99 184 263 172 43 -3 101 -12 129 -20z m1431 15 c35 -19
37 -27 37 -148 0 -104 1 -113 18 -106 9 3 43 13 74 22 69 19 110 7 139 -41 17
-27 19 -52 19 -198 0 -182 11 -236 53 -256 22 -10 22 -10 -6 -21 -63 -25 -102
-24 -131 0 -37 33 -45 79 -46 256 0 143 -1 153 -22 178 -23 25 -81 49 -92 37
-3 -3 -6 -91 -6 -196 0 -173 2 -194 20 -223 11 -18 27 -33 35 -33 37 0 9 -18
-45 -30 -51 -11 -65 -11 -87 1 -49 26 -53 53 -53 383 l0 305 -27 20 c-14 12
-24 23 -22 25 4 5 99 34 112 35 5 1 18 -4 30 -10z m640 4 c-60 -12 -49 -59 22
-92 25 -12 54 -30 65 -41 61 -61 -31 -141 -124 -110 -63 20 -86 90 -31 90 26
0 38 -20 25 -41 -12 -18 16 -49 45 -49 30 0 57 22 50 41 -3 8 -34 32 -70 52
-66 38 -81 61 -71 103 7 27 55 54 91 52 18 -1 18 -1 -2 -5z m-876 -33 c7 -14
13 -61 13 -107 0 -80 1 -83 23 -83 18 0 30 -12 51 -50 l27 -50 -50 0 -51 0 0
-179 c0 -165 2 -180 21 -205 11 -14 28 -26 37 -26 27 0 0 -16 -50 -30 -61 -16
-94 -7 -118 33 -18 29 -20 51 -20 220 0 180 -1 187 -20 187 -14 0 -27 15 -45
50 l-25 50 45 0 45 0 0 59 c0 73 -12 107 -40 116 -44 14 35 45 105 42 31 -2
42 -7 52 -27z m947 11 c22 -24 17 -54 -8 -59 -23 -5 -39 18 -24 35 7 9 7 17
-2 28 -20 24 13 19 34 -4z m-1184 -66 l34 -35 -39 -40 -39 -40 -40 40 -40 40
34 35 c19 19 39 35 45 35 6 0 26 -16 45 -35z m-3 -150 c21 -15 22 -23 25 -228
3 -187 5 -215 22 -239 10 -16 25 -28 32 -28 8 0 14 -4 14 -9 0 -4 -27 -14 -61
-21 -56 -12 -62 -12 -87 7 -44 32 -51 71 -51 275 l-1 188 -27 17 -27 18 55 17
c68 21 80 22 106 3z m1084 -102 c-6 -11 -6 -24 0 -35 7 -13 4 -18 -12 -23 -45
-15 -53 40 -9 62 32 16 33 16 21 -4z m92 -12 c12 -12 22 -41 26 -80 8 -63 1
-81 -29 -81 -27 0 -40 22 -40 67 0 40 -2 43 -19 34 -33 -18 -34 -62 -1 -73 11
-3 9 -8 -8 -17 -45 -24 -91 6 -77 49 3 10 28 27 55 38 41 17 50 25 50 46 0 14
-8 30 -17 36 -15 9 -13 10 12 5 17 -3 38 -14 48 -24z m-3147 -125 c-161 -331
-491 -579 -847 -636 -115 -19 -382 -8 -481 19 -106 29 -225 81 -314 136 l-74
47 20 28 c37 52 140 137 203 168 111 55 158 62 412 62 236 0 439 12 510 29 22
6 71 18 110 27 142 33 330 116 450 198 28 18 52 30 53 25 2 -5 -17 -51 -42
-103z m3109 -120 c16 -11 24 -11 51 0 62 26 84 -4 84 -112 l0 -64 -35 0 -35 0
0 79 c0 84 -8 102 -34 75 -12 -11 -16 -35 -16 -85 l0 -69 -30 0 -30 0 0 79 c0
48 -4 83 -11 87 -8 4 -7 9 2 15 20 12 32 11 54 -5z m-105 -12 c0 -14 2 -15 18
-3 16 13 16 13 2 -5 -8 -11 -15 -43 -16 -75 -1 -31 -2 -62 -3 -68 -1 -7 -14
-13 -31 -13 l-30 0 0 90 0 90 30 0 c21 0 30 -5 30 -16z"/>
<path d="M5800 3260 c0 -110 3 -200 6 -200 4 0 21 9 38 20 99 60 106 250 14
342 -21 21 -42 38 -48 38 -6 0 -10 -73 -10 -200z"/>
<path d="M5800 2866 c0 -107 4 -167 11 -172 6 -3 8 -17 5 -30 -6 -21 -3 -24
22 -24 66 0 150 47 177 100 19 36 19 110 2 153 -21 48 -88 104 -148 121 -29 9
-56 16 -61 16 -4 0 -8 -74 -8 -164z"/>
<path d="M8040 3129 l0 -100 41 23 c44 24 79 62 79 84 0 45 -52 94 -100 94
-19 0 -20 -6 -20 -101z"/>
</g>
</svg>
